<svg width="171" height="100" fill="none" xmlns="http://www.w3.org/2000/svg"><path d="M97.611 19.437c-.216.03-.084.209-.134.383-.082.279-.409.523-.625.697-.106.085-.319.189-.345.327l-.104.571c-.05.269-.234.564-.349.816-.138.307-.276.613-.416.92-.14.308-.347.633-.437.96-.086.32-.176.641-.256.966-.086.359-.167.681-.185 1.048-.018.349-.038.697-.06 1.046-.002.04-.449.054-.489.064-.166.042-.336.145-.495.213-.306.13-.604.176-.901.342-.617.345-.793 1.149-1.036 1.752-.034.084-.24.184-.33.184-.237 0-.237-.02-.345.185-.074.14-.104.336-.275.336h-.528c.042-.3.124-.39.322-.629.144-.176.28-.359.419-.539.172-.226.236-.515.41-.738.239-.302.473-.567.746-.835.208-.207.403-.443.641-.614.168-.122.339-.246.507-.366.084-.062-.04-.347-.068-.415-.11-.275-.253-.613-.319-.904-.068-.31-.056-.661-.098-.982-.094-.707-.407-1.283-.74-1.91-.047-.092-.308-.166-.4-.116-.158.088-.317.176-.475.262-.278.157-.573.283-.853.44-.583.322-.978.863-1.447 1.328-.068.066-.25.32-.34.323l-.53.008c-.368.006-.7.006-1.059.082-.329.07-.545.383-.87.4-.192.013-.344.077-.526.143-.11.04-.247.299-.319.389-.222.282-.469.547-.707.816-.11.124-.195.15-.373.15-.09 0-.378-.114-.4-.016a3.342 3.342 0 0 0-.089.54c0 .035-.192.017-.226.017-.196 0-.008-.064-.106-.116-.094-.048-.177.072-.177-.07v-.24c0-.053.12-.125.159-.157.052-.048.058-.103.078-.173.056-.182.104-.254.294-.334.155-.066.259-.177.385-.289.275-.244.553-.477.835-.71.53-.434 1.106-.75 1.735-1.02.245-.104.648-.21.792-.43.07-.113.218-.275.218-.403 0-.16-.022-.313.042-.46.136-.314.305-.578.463-.879.116-.216.14-.29.36-.393.15-.068.169-.23.227-.38.046-.117-.791-.203-.863-.203-.361 0-.662-.106-1.01-.192-.333-.083-.655-.085-.968-.233-.29-.138-.597-.224-.89-.355-.582-.256-1.212-.48-1.742-.833l-1.152-.764c-.07-.046-.193-.176-.273-.128a2.015 2.015 0 0 1-.479.212c-.132.04-.258.139-.394.153-.167.018-.333.042-.5.056-.322.026-.65.076-.973.076-.184 0-.405.034-.585 0-.142-.026-.276-.116-.417-.156-.332-.099-.649-.17-.947-.345-.591-.343-1.172-.683-1.785-.986-.277-.138-.692.048-.964.134-.294.092-.57.259-.871.323-.177.038-.405.048-.567.122-.149.068-.29.213-.421.309-.257.188-.555.349-.791.56-.039.033-.273.368-.289.366-.094-.006-.19-.01-.284-.018-.053-.002-.019-.15-.055-.173-.15-.106-.334.227-.428.269-.1.044-.335 0-.451 0 .062-.086.028-.243.142-.285.04-.014.07-.058.1-.088.088-.086.173-.2.275-.268.222-.15.44-.3.653-.463a8.518 8.518 0 0 1 1.394-.848c.503-.247.99-.517 1.495-.758.252-.12.497-.232.731-.383.219-.138.519-.08.772-.084l.622-.008c.085-.002.093-.098.2-.098h1.816c.132 0 .246.15.246-.074 0-.122-.06-.249-.06-.38v-.648c0-.29-.074-.626-.316-.802-.253-.182-.533-.333-.778-.525-.332-.26-.663-.519-.993-.78-.2-.156-.465-.406-.72-.462-.582-.129-1.408 0-1.98.196-.658.224-1.117.808-1.58 1.287-.082.084-.228.266-.336.296-.219.058-.25-.11-.419.082-.086.099-.176.275-.306.323-.119.046-.365-.002-.277-.156.34-.605.847-1.018 1.416-1.41.279-.19.525-.444.776-.666.226-.201.503-.331.773-.465.303-.15.607-.301.924-.423.284-.11.649-.343.951-.361.674-.038 1.353.03 1.988.256.655.233 1.224.545 1.835.87.206-.042.288-.238.407-.399.112-.15.326-.272.472-.394.315-.263.64-.516.956-.774.633-.517.994-1.156 1.236-1.918.104-.329.207-.653.297-.984.084-.31.23-.647-.014-.92-.183-.202-.2-.228-.471-.254a.717.717 0 0 1-.419-.189c-.12-.104-.154-.282-.322-.296-.167-.016-.333-.032-.5-.038-.19-.008-.382-.018-.572-.028-.118-.009-.227-.157-.307-.241-.216-.228-.47-.503-.334-.84.09-.22.168-.248.378-.37.14-.083.28-.163.423-.245.287-.166.557-.309.882-.389.176-.044.35-.094.525-.144.084-.024.318-.068.36-.138.082-.143.15-.335.28-.44.185-.144.145-.22.145-.456 0-.299-.004-.595.018-.892.02-.253-.024-.764.102-.986.142-.249.279-.615.597-.683.176-.039.349-.105.525-.067.192.04.234.119.38.249.175.152.27.134.498.134.162 0 .316.068.468.112.423.127.143.598.032.816a.855.855 0 0 0-.128-.37c-.03-.05-.234.001-.296.001-.193 0-.229-.01-.363.123-.078.076-.114.232-.16.328-.102.223-.205.447-.305.67-.022.05-.156.3-.118.318.142.06.218.068.375.068.226 0 .434-.26.613-.4.152-.12.48-.22.675-.159.3.095.006.413-.118.56-.157.186-.3.384-.45.579.077.018.201.084.267.034l.313-.24c.15-.115.29-.237.447-.343.206-.143.913-.45 1.066-.089.026.058.011.375-.017.41a1.74 1.74 0 0 1-.17.176c-.086.07-.172.14-.256.212-.23.188-.517.337-.764.507-.044.03-.198.096-.168.148l.148.253.193.33c.172.293.344.574.479.882.142.333.298.66.408 1.002.109.331.102.566.094.916-.014.686-.02 1.363-.108 2.042-.088.684-.21 1.361-.354 2.035-.07.328-.139.657-.207.988-.062.292.22.689.339.93.308.63.843 1.118 1.32 1.62.189.197.429.408.667.54.124.07.285.206.429.222l.611.063c.295.032.69.008.972.088.316.09.643.379.905.56.55.38 1.136.544 1.733.819.279.128.641.226.876.422.242.203.613.411.771.686.186.326.375.651.55.984.16.305.594-.084.77-.223.097-.078.195-.34.279-.372.202-.076.094.216.15.31.042.074.14.471.044.485ZM84.96.517c.01-.053-.13-.08-.176-.097-.355-.142-.569.435-.703.644-.156.244-.072.74-.072 1.03.114-.15.166-.265.3-.4.044-.041.14-.19.165-.242.052-.106.102-.21.164-.304.096-.143.15-.219.218-.363.04-.09.086-.172.104-.269ZM39.264 47.17v-6.096c-4.02-2.325-10.428-3.896-16.02-3.896C9.298 37.178 0 46.038 0 59.36c0 13.322 9.298 22.184 23.244 22.184 5.78 0 12.377-1.572 16.398-3.896v-11.69c0-2.89.942-4.273 2.639-4.273V60.68H30.344v1.006c1.695 0 2.639 1.383 2.639 4.273v12.317c-3.142.88-6.598 1.383-9.801 1.383-9.046 0-15.078-8.169-15.078-20.362 0-12.19 6.032-20.36 15.078-20.36 6.66 0 11.748 2.263 14.323 6.724.252.439.567.942.817 1.383l.942.126ZM70.111 81.23h13.694v-1.006c-1.633 0-3.015-1.383-4.21-4.022L62.761 36.486h-1.886L46.49 76.39c-1.068 2.64-2.387 3.96-4.208 3.96v1.006h8.67V80.35h-.504c-1.82 0-2.324-1.948-1.382-4.84l3.33-9.551h14.887c1.32 3.393 2.765 6.85 4.085 10.18 1.068 2.578.754 4.273-.817 4.273h-.439v.818Zm-3.518-17.157H53.148l6.157-17.783 7.288 17.783ZM125.015 81.23h12.69v-1.006c-1.633 0-2.574-1.13-2.827-3.646-.439-11.247-.941-22.622-1.382-33.807-.124-2.892.691-4.275 2.388-4.275v-1.004h-9.298L112.578 72.81 97.061 37.492h-8.356v1.004c1.697 0 2.512 1.383 2.45 4.21l-1.256 33.307c-.062 2.892-1.068 4.275-2.891 4.275v1.004h8.733v-1.004h-.565c-1.948 0-3.204-2.138-3.08-5.343l1.068-28.342c5.278 11.69 10.555 23.316 15.77 35.004h1.885l15.831-38.27.942 33.241c-.062 2.516-.88 3.646-2.451 3.646l-.126 1.006ZM167.547 46.855v-6.662c-3.268-1.886-7.727-3.142-11.245-3.142-8.481 0-14.199 5.279-14.199 13.259 0 4.966 4.398 9.678 11.057 11.814 7.162 2.263 11.937 6.223 11.937 9.866 0 4.588-3.645 7.668-9.11 7.668-.942 0-1.947-.062-2.953-.188-3.831-.692-7.475-3.08-9.296-6.221-.253-.44-.567-.944-.817-1.383h-.88v6.662c3.268 1.884 8.857 3.14 14.008 3.14 8.607 0 14.325-5.026 14.325-12.505 0-5.28-4.586-10.305-11.496-12.506-6.974-2.198-11.622-5.844-11.622-9.049 0-5.09 3.518-8.545 8.731-8.545 0 0 2.765.25 2.701.377 2.514.627 5.153 2.763 6.597 5.34.377.692.88 1.634 1.256 2.325l1.006-.25ZM54.83 92.93h-2.044c-.46.003-.771.028-.935.074-.303.092-.513.348-.625.771-.04.14-.075.335-.107.58l-.208-.023.208-1.895h5.42l-4.56 6.755h2.526c.323 0 .565-.014.727-.044.165-.028.307-.078.431-.152.407-.252.673-.695.798-1.329l.212.022-.393 1.996h-6.026l4.576-6.755ZM66.516 93.567v3.257c0 .466-.034.84-.102 1.12-.127.535-.4.964-.822 1.29-.45.351-1.091.526-1.923.526-1.15 0-1.96-.383-2.426-1.147-.195-.323-.309-.76-.345-1.313-.008-.138-.01-.557-.01-1.258v-2.475c-.004-.367-.064-.613-.18-.738-.106-.114-.295-.174-.563-.186l-.25-.01v-.197h3.133v.197l-.245.01c-.272.012-.462.072-.569.186-.116.125-.176.371-.18.738v3.505c0 .383.024.681.074.898.05.216.137.41.26.585.153.212.363.377.632.493.28.12.575.18.887.18.541 0 1.014-.15 1.419-.45.328-.245.539-.604.63-1.079.047-.222.07-.513.07-.871v-3.261c-.003-.367-.063-.613-.181-.738-.106-.114-.295-.174-.567-.186l-.245-.01v-.197h2.495v.197l-.249.01c-.27.012-.457.072-.563.186-.116.125-.178.371-.18.738ZM80.457 92.93H78.41c-.459.003-.771.028-.933.074-.305.092-.513.348-.627.771-.038.14-.075.335-.107.58l-.206-.023.206-1.895h5.422l-4.56 6.755h2.526c.323 0 .565-.014.727-.044a1.25 1.25 0 0 0 .431-.152c.407-.252.671-.695.796-1.329l.212.022-.393 1.996H75.88l4.578-6.755ZM88.63 99.792 86.36 93.64a6.09 6.09 0 0 0-.24-.573.846.846 0 0 0-.197-.26c-.138-.117-.27-.175-.397-.175h-.08v-.197h2.617v.197h-.148c-.309 0-.461.138-.461.415 0 .116.034.272.106.467l1.416 3.982 1.088-3.01-.412-1.12c-.12-.323-.247-.528-.377-.612a.632.632 0 0 0-.379-.122h-.152v-.197h2.803v.197h-.193c-.198 0-.348.054-.45.164a.387.387 0 0 0-.1.277c0 .176.05.399.154.663l1.426 3.756 1.355-3.894c.07-.2.106-.35.106-.445 0-.174-.056-.305-.17-.393-.079-.062-.215-.1-.413-.118l-.135-.01v-.197h2.152v.197c-.286 0-.505.102-.653.309-.188.274-.397.76-.627 1.449l-1.831 5.4h-.118l-1.683-4.519-1.623 4.52h-.112ZM100.343 96.09v2.327c.004.254.016.429.036.525a.274.274 0 0 0 .154.194c.082.036.215.056.399.056h1.306c.623.002 1.092-.134 1.406-.408.221-.197.425-.53.616-1l.182.074-.623 1.827h-5.616v-.196l.249-.01c.27-.012.456-.072.563-.186.118-.125.178-.371.18-.738v-4.988c-.002-.367-.062-.613-.18-.738-.107-.114-.293-.174-.563-.186l-.249-.01v-.197h5.506l.11 1.642-.191.02c-.052-.427-.16-.73-.324-.902-.136-.146-.335-.242-.593-.293-.114-.024-.345-.036-.691-.036h-1.677v2.73h1.831c.254-.004.435-.048.541-.134.166-.134.258-.343.276-.625.008-.083.01-.19.01-.325h.197v2.64h-.197c0-.342-.032-.574-.094-.702-.124-.237-.368-.357-.733-.361h-1.831ZM109.8 93.567v4.988c.004.367.064.613.18.738.106.114.297.174.569.186l.245.01v.196h-3.134v-.196l.251-.01c.268-.012.456-.072.563-.186.116-.125.176-.371.18-.738v-4.988c-.004-.367-.064-.613-.18-.738-.107-.114-.295-.174-.563-.186l-.251-.01v-.197h3.134v.197l-.245.01c-.272.012-.463.072-.569.186-.116.125-.176.371-.18.738ZM116.38 92.968h-.972c-.375.004-.639.05-.795.138-.263.148-.421.355-.479.621-.02.11-.042.27-.062.483l-.209-.01.106-1.764h5.969l.106 1.764-.208.01c-.034-.433-.121-.723-.255-.876a.975.975 0 0 0-.467-.308 2.431 2.431 0 0 0-.615-.058h-.971v5.587c.002.367.064.613.18.738.106.114.296.174.573.186l.238.01v.196h-3.131v-.196l.238-.01c.277-.012.467-.072.573-.186.119-.125.179-.371.181-.738v-5.587Z" fill="#FFC4D2"/><path opacity=".6" d="M145.009 96.354h-14.745v-.601h14.745v.601ZM40.397 96.355h-15.03v-.601h15.03v.601Z" fill="#FFC4D2"/></svg>
